# AST/ASF file generated using VICON BodyLanguage
# -----------------------------------------------
:version 1.10
:name VICON
:units
  mass 1.0
  length 0.45
  angle deg
:documentation
   .ast/.asf automatically generated from VICON data using
   VICON BodyBuilder and BodyLanguage model FoxedUp or BRILLIANT.MOD
:root
   order TX TY TZ RX RY RZ
   axis XYZ
   position 0 0 0  
   orientation 0 0 0 
:bonedata
  begin
     id 1 
     name lhipjoint
     direction 0.627457 -0.725269 0.283342 
     length 2.53237 
     axis 0 0 0  XYZ
  end
  begin
     id 2 
     name lfemur
     direction 0.34202 -0.939693 0  
     length 7.32496  
     axis 0 0 20  XYZ
    dof rx ry rz
    limits (-160.0 20.0)
           (-70.0 70.0)
           (-60.0 70.0)
  end
  begin
     id 3 
     name ltibia
     direction 0.34202 -0.939693 0   
     length 7.69674   
     axis 0 0 20   XYZ
    dof rx
    limits (-10.0 170.0)
  end
  begin
     id 4 
     name lfoot
     direction 0.127289 -0.349722 0.928166   
     length 1.8612   
     axis -90 7.62852e-016 20   XYZ
    dof rx rz
    limits (-45.0 90.0)
           (-70.0 20.0)
  end
  begin
     id 5 
     name ltoes
     direction 1.53561e-011 -4.21864e-011 1   
     length 0.925608   
     axis -90 7.62852e-016 20   XYZ
    dof rx
    limits (-90.0 20.0)
  end
  begin
     id 6 
     name rhipjoint
     direction -0.609094 -0.738725 0.288599   
     length 2.48624  
     axis 0 0 0  XYZ 
  end
  begin
     id 7 
     name rfemur
     direction -0.34202 -0.939693 0   
     length 7.44259   
     axis 0 0 -20   XYZ
    dof rx ry rz
    limits (-160.0 20.0)
           (-70.0 70.0)
           (-70.0 60.0)
  end
  begin
     id 8 
     name rtibia
     direction -0.34202 -0.939693 0   
     length 7.7781   
     axis 0 0 -20   XYZ
    dof rx
    limits (-10.0 170.0)
 end
 begin
     id 9 
     name rfoot
     direction -0.107015 -0.294021 0.949789   
     length 2.14741  
     axis -90 -7.62852e-016 -20   XYZ
    dof rx rz
    limits (-45.0 90.0)
           (-20.0 70.0)
  end
  begin
     id 10 
     name rtoes
     direction -1.53497e-011 -4.21924e-011 1   
     length 1.0706   
     axis -90 -7.62852e-016 -20   XYZ
    dof rx
    limits (-90.0 20.0)
  end
  begin
     id 11 
     name lowerback
     direction -0.0142066 0.998112 -0.0597545   
     length 1.86627   
     axis 0 0 0   XYZ
    dof rx ry rz
    limits (-20.0 45.0)
           (-30.0 30.0)
           (-30.0 30.0)
  end
  begin
     id 12 
     name upperback
     direction 0.00547294 0.999744 0.0219437   
     length 1.86272   
     axis 0 0 0   XYZ
    dof rx ry rz
    limits (-20.0 45.0)
           (-30.0 30.0)
           (-30.0 30.0)
  end
  begin
     id 13 
     name thorax
     direction 0.0116162 0.998704 0.0495538   
     length 1.8703   
     axis 0 0 0   XYZ
    dof rx ry rz
    limits (-20.0 45.0)
           (-30.0 30.0)
           (-30.0 30.0)
  end
  begin
     id 14 
     name lowerneck
     direction -0.0106574 0.998739 0.0490586   
     length 1.8074   
     axis 0 0 0   XYZ
    dof rx ry rz
    limits (-20.0 45.0)
           (-30.0 30.0)
           (-30.0 30.0)
  end
  begin
     id 15 
     name upperneck
     direction 0.030527 0.976587 -0.212944   
     length 1.80681   
     axis 0 0 0   XYZ
    dof rx ry rz
    limits (-20.0 45.0)
           (-30.0 30.0)
           (-30.0 30.0)
  end
  begin
     id 16
     name head
     direction 0.00869225 0.997035 -0.0764531  
     length 1.8313  
     axis 0 0 0   XYZ
    dof rx ry rz
    limits (-20.0 45.0)
           (-30.0 30.0)
           (-30.0 30.0)
  end
  begin
     id 17 
     name lclavicle
     direction 0.915958 0.399447 0.0382386  
     length 3.78965  
     axis 0 0 0   XYZ
    dof ry rz
    limits (-20.0 10.0)
           (0.0 20.0)
  end
  begin
     id 18 
     name lhumerus
     direction 1 -4.48967e-011 3.19303e-027   
     length 4.78095   
     axis -180 -30 -90   XYZ
    dof rx ry rz
    limits (-60.0 90.0)
           (-90.0 90.0)
           (-90.0 90.0)
  end
  begin
     id 19
     name lradius
     direction 1 -4.48967e-011 -3.77974e-027   
     length 3.58615   
     axis -180 -30 -90   XYZ
    dof rx
    limits (-10.0 170.0)
  end
  begin
     id 20
     name lwrist
     direction 1 -4.48927e-011 1.2807e-027   
     length 1.79307   
     axis 1.91374e-015 90 90   XYZ
    dof ry
    limits (-180.0 0.0)
 end
  begin
     id 21 
     name lhand
     direction 1 -4.49036e-011 2.5614e-027   
     length 0.659812   
     axis -1.63439e-015 90 90   XYZ
    dof rx rz
    limits (-90.0 90.0)
           (-45.0 45.0)
  end
  begin
     id 22 
     name lfingers
     direction 1 -4.49052e-011 5.1228e-027   
     length 0.531957   
     axis -3.26879e-015 90 90   XYZ
    dof rx
    limits (0.0 90.0)
  end
  begin
     id 23
     name lthumb
     direction 0.707107 -6.35012e-011 0.707107   
     length 0.763787   
     axis -90 45 2.85299e-015   XYZ
    dof rx rz
    limits (-45.0 45.0)
           (-45.0 45.0)
  end
  begin
     id 24 
     name rclavicle
     direction -0.895351 0.435135 0.0948887   
     length 3.70497  
     axis 0 0 0   XYZ 
    dof ry rz
    limits (-10.0 20.0)
           (-20.0 0.0)
  end
  begin
     id 25 
     name rhumerus
     direction -1 -4.48971e-011 2.38946e-027  
     length 4.48913   
     axis -180 30 90   XYZ
    dof rx ry rz
    limits (-90.0 60.0)
           (-90.0 90.0)
           (-90.0 90.0)
  end
  begin
     id 26 
     name rradius
     direction -1 -4.4895e-011 4.38668e-027   
     length 3.7051   
     axis -180 30 90   XYZ
    dof rx
    limits (-10.0 170.0)
  end
  begin
     id 27 
     name rwrist
     direction -1 -4.49007e-011 1.2807e-027   
     length 1.85255   
     axis 1.91374e-015 -90 -90   XYZ
    dof ry
    limits (-180.0 0.0)
  end
  begin
     id 28
     name rhand
     direction -1 -4.48851e-011 2.5614e-027   
     length 0.449136   
     axis -1.63439e-015 -90 -90   XYZ
    dof rx rz
    limits (-90.0 90.0)
           (-45.0 45.0)
  end
  begin
     id 29
     name rfingers
     direction -1 -4.49128e-011 5.1228e-027   
     length 0.362105   
     axis -3.26879e-015 -90 -90   XYZ
    dof rx
    limits (0.0 90.0)
  end
  begin
     id 30
     name rthumb
     direction -0.707107 -6.34851e-011 0.707107   
     length 0.519912   
     axis -90 -45 -2.85299e-015   XYZ
    dof rx rz
    limits (-45.0 45.0)
           (-45.0 45.0)
  end
:hierarchy
  begin
    root lhipjoint rhipjoint lowerback
    lhipjoint lfemur
    lfemur ltibia
    ltibia lfoot
    lfoot ltoes
    rhipjoint rfemur
    rfemur rtibia
    rtibia rfoot
    rfoot rtoes
    lowerback upperback
    upperback thorax
    thorax lowerneck lclavicle rclavicle
    lowerneck upperneck
    upperneck head
    lclavicle lhumerus
    lhumerus lradius
    lradius lwrist
    lwrist lhand lthumb
    lhand lfingers
    rclavicle rhumerus
    rhumerus rradius
    rradius rwrist
    rwrist rhand rthumb
    rhand rfingers
  end

#!OML:ASF I:\Actors\actors\Patient Classification 2\Patient 1\Session 1\actor1.ASF
:FULLY-SPECIFIED
:DEGREES
31
root -0.713958 18.6551 5.90492 0.316018 -3.30368 -3.90487
lowerback 1.19632 0.640938 1.75939
upperback -2.26331 0.928283 0.973311
thorax -2.98286 0.434423 -0.0209137
lowerneck -9.69911 -0.315776 -1.07764
upperneck 25.018 -0.99763 2.98699
head 9.49154 -0.246123 1.10692
rclavicle 2.43014e-014 -1.78906e-015
rhumerus -48.4829 -8.18642 -85.1027
rradius 40.9748
rwrist 11.162
rhand -6.13988 -39.2945
rfingers 7.12502
rthumb 19.6979 -68.3165
lclavicle 2.43014e-014 -1.78906e-015
lhumerus -43.7145 4.82787 89.7779
lradius 36.3431
lwrist -5.56852
lhand -11.5962 -28.4145
lfingers 7.12502
lthumb 14.4461 1.06265
rfemur 0 0 0
rtibia 0
rfoot 0 0
rtoes 0
lfemur -2.87003 -7.33377 -11.0001
ltibia 22.7109
lfoot -25.4975 15.9683
ltoes -54.9169
32
root -0.714132 18.6554 5.90611 0.33212 -3.30417 -3.89681
lowerback 1.17871 0.643213 1.73691
upperback -2.26526 0.930472 0.980032
thorax -2.97535 0.436165 -0.00130502
lowerneck -9.71679 -0.333331 -1.16469
upperneck 25.0573 -1.02796 3.07354
head 9.51025 -0.258659 1.14886
rclavicle -3.6154e-015 -1.39149e-015
rhumerus -48.4842 -8.13163 -85.1338
rradius 40.9935
rwrist 11.1078
rhand -6.13077 -39.3805
rfingers 7.12502
rthumb 19.7066 -68.4016
lclavicle -3.6154e-015 -1.39149e-015
lhumerus -43.7069 4.8286 89.8006
lradius 36.3311
lwrist -5.55813
lhand -11.6115 -28.4501
lfingers 7.12502
lthumb 14.4313 1.02818
rfemur 0 0 0
rtibia 0
rfoot 0 0
rtoes 0
lfemur -2.87893 -7.34809 -11.0087
ltibia 22.7009
lfoot -25.5074 15.9795
ltoes -54.9092
33
root -0.713789 18.6552 5.90742 0.334582 -3.29856 -3.90063
lowerback 1.17777 0.635062 1.72106
upperback -2.26912 0.919648 0.99625
thorax -2.97943 0.431291 0.0246042
lowerneck -9.73523 -0.342841 -1.20069
upperneck 25.1065 -1.03785 3.08258
head 9.53163 -0.26527 1.15754
rclavicle 3.97569e-015 -1.39149e-015
rhumerus -48.4985 -8.09157 -85.1426
rradius 41.0075
rwrist 11.0896
rhand -6.12489 -39.3985
rfingers 7.12502
rthumb 19.7123 -68.419
lclavicle 3.97569e-015 -1.39149e-015
lhumerus -43.6938 4.80969 89.8415
lradius 36.3134
lwrist -5.5146
lhand -11.641 -28.5036
lfingers 7.12502
lthumb 14.4029 0.976703
rfemur 0 0 0
rtibia 0
rfoot 0 0
rtoes 0
lfemur -2.87939 -7.36395 -11.0067
ltibia 22.7017
lfoot -25.5209 15.9768
ltoes -54.8739
34
root -0.712496 18.655 5.90875 0.334792 -3.29763 -3.92207
lowerback 1.16885 0.615699 1.73689
upperback -2.25639 0.894501 1.02511
thorax -2.96182 0.418909 0.0464828
lowerneck -9.81712 -0.329608 -1.25028
upperneck 25.179 -1.00714 3.06833
head 9.57229 -0.256155 1.16522
rclavicle -9.11925e-015 -4.96962e-015
rhumerus -48.4796 -8.03442 -85.1396
rradius 41.0138
rwrist 11.1005
rhand -6.10241 -39.4779
rfingers 7.12502
rthumb 19.7339 -68.4962
lclavicle -9.11925e-015 -4.96962e-015
lhumerus -43.6331 4.79613 89.9079
lradius 36.2796
lwrist -5.43716
lhand -11.6882 -28.5114
lfingers 7.12502
lthumb 14.3575 0.972099
rfemur 0 0 0
rtibia 0
rfoot 0 0
rtoes 0
lfemur -2.8789 -7.40129 -10.9918
ltibia 22.7105
lfoot -25.5516 15.992
ltoes -54.8537
35
root -0.712271 18.655 5.90907 0.335281 -3.30033 -3.95509
lowerback 1.17343 0.606502 1.76182
upperback -2.24682 0.883537 1.05248
thorax -2.95477 0.41329 0.0610417
lowerneck -9.88386 -0.328463 -1.3261
upperneck 25.2282 -0.9965 3.08956
head 9.60263 -0.255248 1.1873
rclavicle 1.13183e-014 7.95139e-015
rhumerus -48.4588 -7.99685 -85.1335
rradius 41.014
rwrist 11.1497
rhand -6.04055 -39.6115
rfingers 7.12502
rthumb 19.7934 -68.6237
lclavicle 1.13183e-014 7.95139e-015
lhumerus -43.6055 4.80957 89.9544
lradius 36.2877
lwrist -5.39295
lhand -11.7098 -28.4965
lfingers 7.12502
lthumb 14.3366 0.988489
rfemur 0 0 0
rtibia 0
rfoot 0 0
rtoes 0
lfemur -2.88006 -7.41636 -10.958
ltibia 22.7209
lfoot -25.5662 15.9994
ltoes -54.8772
36
root -0.712922 18.655 5.90964 0.335613 -3.29845 -3.95822
lowerback 1.17648 0.610654 1.74811
upperback -2.25392 0.888926 1.05199
thorax -2.96394 0.416197 0.0679359
lowerneck -9.87396 -0.342906 -1.34627
upperneck 25.2393 -1.01847 3.11018
head 9.60542 -0.265155 1.19559
rclavicle 1.19892e-014 -4.17448e-015
rhumerus -48.4889 -8.00748 -85.1417
rradius 41.0334
rwrist 11.1948
rhand -6.00713 -39.7229
rfingers 7.12502
rthumb 19.8255 -68.7318
lclavicle 1.19892e-014 -4.17448e-015
lhumerus -43.6264 4.79889 89.9647
lradius 36.3101
lwrist -5.37132
lhand -11.7436 -28.492
lfingers 7.12502
lthumb 14.3041 0.995332
rfemur 0 0 0
rtibia 0
rfoot 0 0
rtoes 0
lfemur -2.88274 -7.3889 -10.9493
ltibia 22.7285
lfoot -25.5472 15.992
ltoes -54.9025
37
root -0.712336 18.6552 5.91135 0.341735 -3.31819 -3.94783
lowerback 1.15845 0.620505 1.74421
upperback -2.2572 0.901193 1.03838
thorax -2.95683 0.422274 0.0558924
lowerneck -9.86116 -0.356753 -1.36062
upperneck 25.241 -1.04313 3.14062
head 9.60444 -0.274779 1.2059
rclavicle 3.88873e-015 -6.75868e-015
rhumerus -48.5302 -8.02285 -85.1511
rradius 41.0681
rwrist 11.2317
rhand -5.95104 -39.7829
rfingers 7.12502
rthumb 19.8794 -68.7862
lclavicle 3.88873e-015 -6.75868e-015
lhumerus -43.6456 4.75628 89.9753
lradius 36.3371
lwrist -5.32721
lhand -11.7614 -28.5038
lfingers 7.12502
lthumb 14.2869 0.984706
rfemur 0 0 0
rtibia 0
rfoot 0 0
rtoes 0
lfemur -2.87815 -7.40615 -10.9711
ltibia 22.7301
lfoot -25.5567 16.035
ltoes -54.9417
38
root -0.711412 18.6554 5.91253 0.348894 -3.34334 -3.95517
lowerback 1.15525 0.626293 1.76543
upperback -2.25781 0.909427 1.0395
thorax -2.95529 0.425914 0.0449005
lowerneck -9.86244 -0.369455 -1.3953
upperneck 25.2309 -1.05779 3.15599
head 9.60166 -0.283278 1.21545
rclavicle 3.35449e-016 7.15625e-015
rhumerus -48.5456 -8.00762 -85.1488
rradius 41.0789
rwrist 11.2492
rhand -5.9274 -39.7765
rfingers 7.12502
rthumb 19.9021 -68.7774
lclavicle 3.35449e-016 7.15625e-015
lhumerus -43.6179 4.64356 90.0369
lradius 36.3115
lwrist -5.21025
lhand -11.7398 -28.5039
lfingers 7.12502
lthumb 14.3077 0.983184
rfemur 0 0 0
rtibia 0
rfoot 0 0
rtoes 0
lfemur -2.87031 -7.45523 -10.978
ltibia 22.7292
lfoot -25.5996 16.0683
ltoes -54.9317
39
root -0.711208 18.6551 5.91301 0.347758 -3.33481 -3.94259
lowerback 1.15063 0.611895 1.74344
upperback -2.24698 0.889409 1.04374
thorax -2.94211 0.416617 0.0623923
lowerneck -9.87937 -0.366835 -1.4111
upperneck 25.2245 -1.05167 3.15964
head 9.60254 -0.281474 1.22005
rclavicle -1.04859e-014 1.11319e-014
rhumerus -48.5251 -7.9776 -85.1561
rradius 41.0618
rwrist 11.246
rhand -5.99115 -39.6666
rfingers 7.12502
rthumb 19.8409 -68.6739
lclavicle -1.04859e-014 1.11319e-014
lhumerus -43.5346 4.53664 90.0987
lradius 36.2276
lwrist -5.0953
lhand -11.7303 -28.4689
lfingers 7.12502
lthumb 14.3169 1.01753
rfemur 0 0 0
rtibia 0
rfoot 0 0
rtoes 0
lfemur -2.86935 -7.47898 -10.9944
ltibia 22.729
lfoot -25.6285 16.0492
ltoes -54.8337
40
root -0.71094 18.655 5.91342 0.348618 -3.32817 -3.94067
lowerback 1.12428 0.603119 1.73174
upperback -2.22742 0.876238 1.0409
thorax -2.90733 0.410592 0.0669069
lowerneck -9.87447 -0.363952 -1.36628
upperneck 25.1855 -1.0465 3.12321
head 9.58727 -0.279117 1.19988
rclavicle 1.25607e-014 4.77083e-015
rhumerus -48.4977 -7.98185 -85.1633
rradius 41.0454
rwrist 11.2496
rhand -6.0175 -39.5087
rfingers 7.12502
rthumb 19.8155 -68.5186
lclavicle 1.25607e-014 4.77083e-015
lhumerus -43.4792 4.49708 90.1114
lradius 36.1927
lwrist -5.05454
lhand -11.7474 -28.4423
lfingers 7.12502
lthumb 14.3004 1.0453
rfemur 0 0 0
rtibia 0
rfoot 0 0
rtoes 0
lfemur -2.87133 -7.49152 -10.9999
ltibia 22.729
lfoot -25.6245 16.0635
ltoes -54.7815
41
root -0.710445 18.6556 5.91402 0.357176 -3.34222 -3.95719
lowerback 1.09555 0.614037 1.75251
upperback -2.2156 0.89015 1.03325
thorax -2.87837 0.417217 0.0473279
lowerneck -9.81933 -0.384448 -1.29944
upperneck 25.0856 -1.06717 3.04633
head 9.54121 -0.291852 1.15846
rclavicle -3.44146e-015 2.98177e-015
rhumerus -48.4977 -8.00776 -85.1679
rradius 41.0566
rwrist 11.2354
rhand -6.01334 -39.5076
rfingers 7.12502
rthumb 19.8195 -68.517
lclavicle -3.44146e-015 2.98177e-015
lhumerus -43.4665 4.484 90.102
lradius 36.1964
lwrist -5.07566
lhand -11.7455 -28.4537
lfingers 7.12502
lthumb 14.3023 1.03375
rfemur 0 0 0
rtibia 0
rfoot 0 0
rtoes 0
lfemur -2.87629 -7.45665 -10.9811
ltibia 22.73
lfoot -25.5865 16.0712
ltoes -54.812
42
root -0.710139 18.6557 5.91443 0.350498 -3.34368 -3.94142
lowerback 1.09833 0.613502 1.73959
upperback -2.21141 0.88869 1.01712
thorax -2.87554 0.416619 0.0380377
lowerneck -9.78678 -0.391662 -1.25287
upperneck 25.0268 -1.07549 3.00695
head 9.51404 -0.296272 1.13535
rclavicle -1.76421e-014 3.57812e-015
rhumerus -48.5162 -7.99875 -85.1925
rradius 41.0878
rwrist 11.2014
rhand -5.99709 -39.6103
rfingers 7.12502
rthumb 19.8351 -68.6182
lclavicle -1.76421e-014 3.57812e-015
lhumerus -43.4624 4.52169 90.0606
lradius 36.1838
lwrist -5.15494
lhand -11.7064 -28.4936
lfingers 7.12502
lthumb 14.3399 0.991155
rfemur 0 0 0
rtibia 0
rfoot 0 0
rtoes 0
lfemur -2.87377 -7.391 -10.9902
ltibia 22.7315
lfoot -25.519 16.0299
ltoes -54.8673
43
root -0.709691 18.6552 5.91402 0.347208 -3.33866 -3.92911
lowerback 1.11849 0.598204 1.72174
upperback -2.2185 0.868369 1.01266
thorax -2.89463 0.406669 0.0439063
lowerneck -9.77053 -0.374854 -1.23951
upperneck 25.01 -1.0563 3.0151
head 9.50446 -0.285475 1.13782
rclavicle 5.46658e-016 1.51076e-014
rhumerus -48.524 -7.96278 -85.2036
rradius 41.0878
rwrist 11.2031
rhand -5.99718 -40.0304
rfingers 7.12502
rthumb 19.8351 -69.0383
lclavicle 5.46658e-016 1.51076e-014
lhumerus -43.4775 4.59855 90.0089
lradius 36.1724
lwrist -5.23262
lhand -11.7129 -28.5114
lfingers 7.12502
lthumb 14.3337 0.973798
rfemur 0 0 0
rtibia 0
rfoot 0 0
rtoes 0
lfemur -2.87539 -7.38624 -11.0022
ltibia 22.7302
lfoot -25.5146 16.017
ltoes -54.8789
44
root -0.709369 18.6552 5.9133 0.365113 -3.34777 -3.94993
lowerback 1.1165 0.593668 1.73346
upperback -2.22633 0.86301 1.02436
thorax -2.90168 0.403794 0.0495329
lowerneck -9.73686 -0.366252 -1.2722
upperneck 24.9703 -1.0454 3.04917
head 9.48399 -0.28027 1.15602
rclavicle -1.6934e-014 -9.93923e-016
rhumerus -48.5196 -7.95733 -85.183
rradius 41.0681
rwrist 11.2008
rhand -6.07916 -40.7909
rfingers 7.12502
rthumb 19.7563 -69.8069
lclavicle -1.6934e-014 -9.93923e-016
lhumerus -43.4821 4.65758 89.9813
lradius 36.1664
lwrist -5.28892
lhand -11.7509 -28.4997
lfingers 7.12502
lthumb 14.297 0.988097
rfemur 0 0 0
rtibia 0
rfoot 0 0
rtoes 0
lfemur -2.88999 -7.4299 -10.9844
ltibia 22.7287
lfoot -25.6127 16.0387
ltoes -54.8259
45
root -0.709623 18.6552 5.91307 0.373206 -3.35615 -3.95693
lowerback 1.10696 0.601965 1.7333
upperback -2.22364 0.873734 1.02272
thorax -2.89337 0.409195 0.0476733
lowerneck -9.69778 -0.37188 -1.27561
upperneck 24.9151 -1.05435 3.06093
head 9.4573 -0.284091 1.15916
rclavicle 8.58501e-015 8.94531e-015
rhumerus -48.5264 -7.99451 -85.1582
rradius 41.0751
rwrist 11.1713
rhand -6.11206 -41.1655
rfingers 7.12502
rthumb 19.7246 -70.1847
lclavicle 8.58501e-015 8.94531e-015
lhumerus -43.4953 4.72043 89.9369
lradius 36.2
lwrist -5.39143
lhand -11.7392 -28.5061
lfingers 7.12502
lthumb 14.3083 0.980919
rfemur 0 0 0
rtibia 0
rfoot 0 0
rtoes 0
lfemur -2.89505 -7.43822 -10.9787
ltibia 22.7298
lfoot -25.6527 16.0416
ltoes -54.797
46
root -0.709616 18.6553 5.91308 0.377441 -3.35564 -3.94748
lowerback 1.10021 0.603116 1.71991
upperback -2.22549 0.874517 1.01218
thorax -2.89147 0.409767 0.0443897
lowerneck -9.6511 -0.372578 -1.24552
upperneck 24.8638 -1.05744 3.04977
head 9.43024 -0.28462 1.14931
rclavicle 1.51076e-014 -4.17448e-015
rhumerus -48.5353 -8.0329 -85.1342
rradius 41.0771
rwrist 11.1866
rhand -6.05504 -41.1442
rfingers 7.12502
rthumb 19.7794 -70.1578
lclavicle 1.51076e-014 -4.17448e-015
lhumerus -43.5712 4.82285 89.8672
lradius 36.3092
lwrist -5.52018
lhand -11.7132 -28.4985
lfingers 7.12502
lthumb 14.3334 0.986676
rfemur 0 0 0
rtibia 0
rfoot 0 0
rtoes 0
lfemur -2.90161 -7.40229 -10.9853
ltibia 22.7315
lfoot -25.5975 16.0119
ltoes -54.802
